<?xml version="1.0" encoding="UTF-8" standalone="no"?>
<svg
   xmlns:dc="http://purl.org/dc/elements/1.1/"
   xmlns:cc="http://creativecommons.org/ns#"
   xmlns:rdf="http://www.w3.org/1999/02/22-rdf-syntax-ns#"
   xmlns:svg="http://www.w3.org/2000/svg"
   xmlns="http://www.w3.org/2000/svg"
   xmlns:sodipodi="http://sodipodi.sourceforge.net/DTD/sodipodi-0.dtd"
   xmlns:inkscape="http://www.inkscape.org/namespaces/inkscape"
   version="1.1"
   id="Layer_1"
   x="0px"
   y="0px"
   width="30"
   height="30"
   viewBox="5 -10 30 40.5"
   enable-background="new 0 0 100 100"
   xml:space="preserve"
   inkscape:version="0.91 r13725"
   sodipodi:docname="I.svg"><metadata
     id="metadata13"><rdf:RDF><cc:Work
         rdf:about=""><dc:format>image/svg+xml</dc:format><dc:type
           rdf:resource="http://purl.org/dc/dcmitype/StillImage" /><dc:title></dc:title></cc:Work></rdf:RDF></metadata><defs
     id="defs11" /><sodipodi:namedview
     pagecolor="#ffffff"
     bordercolor="#666666"
     borderopacity="1"
     objecttolerance="10"
     gridtolerance="10"
     guidetolerance="10"
     inkscape:pageopacity="0"
     inkscape:pageshadow="2"
     inkscape:window-width="1600"
     inkscape:window-height="876"
     id="namedview9"
     showgrid="false"
     inkscape:zoom="11.385"
     inkscape:cx="9.3386251"
     inkscape:cy="8.4471832"
     inkscape:window-x="0"
     inkscape:window-y="24"
     inkscape:window-maximized="1"
     inkscape:current-layer="Layer_1" /><path
     d="m 34.39788,6.8106725 0,-5.1175036 c 0,-6.2540388 -5.117946,-11.3715426 -11.371542,-11.3715426 l -5.686212,0 c -6.25404,0 -11.3719863,5.1175038 -11.3719863,11.3715426 l 0,5.1175036 -5.68532887,14.7833565 c 0,2.842664 8.90964067,8.528437 19.90042017,8.528437 10.990782,0 19.900419,-5.685773 19.900419,-8.528437 L 34.39788,6.8106725 Z M 11.654354,25.502914 c -0.589054,0 -1.066219,-0.477608 -1.066219,-1.066221 0,-0.589493 0.477165,-1.065777 1.066219,-1.065777 0.589494,0 1.066221,0.476284 1.066221,1.065777 0,0.588613 -0.476727,1.066221 -1.066221,1.066221 M 10.233022,10.222047 c 0,-0.7818656 0.395354,-1.9250342 0.876945,-2.5397362 0,0 1.351017,-1.724703 4.098159,-1.724703 1.393914,0 2.366382,0.6407936 2.366382,0.6407936 0.653175,0.4294067 1.187389,1.4204477 1.187389,2.2018708 l 0,2.1324388 c 0,0.390491 -0.639464,0.710669 -1.42133,0.710669 l -5.686213,0 c -0.781868,4.41e-4 -1.421332,-0.639911 -1.421332,-1.421333 m 5.685328,14.214646 -1.421332,0 0,-2.842664 1.421332,-1.421774 0,4.264438 z m 3.553772,0 -2.131996,0 0,-5.68577 2.131996,0 0,5.68577 z m -1.421331,-7.107544 0,-2.131998 c 0,-1.178104 0.955662,-2.132 2.13244,-2.132 1.17722,0 2.131999,0.953896 2.131999,2.132 l 0,2.131998 -4.264439,0 z m 4.975547,7.107544 -2.131998,0 0,-5.68577 2.131998,0 0,5.68577 z m 2.842665,0 -1.421332,0 0,-4.264438 1.421332,1.421774 0,2.842664 z m 2.843105,1.066221 c -0.589492,0 -1.066219,-0.477608 -1.066219,-1.066221 0,-0.589493 0.476727,-1.065777 1.066219,-1.065777 0.588613,0 1.065778,0.476284 1.065778,1.065777 0,0.588613 -0.477165,1.066221 -1.065778,1.066221 m 0,-13.859093 -5.68577,0 c -0.782308,0 -1.421331,-0.320619 -1.421331,-0.710666 l 0,-2.1324405 c 0,-0.7818654 0.533772,-1.7729064 1.187391,-2.2018709 0,0 0.972467,-0.6407934 2.366381,-0.6407934 2.748468,0 4.098158,1.7247031 4.098158,1.7247031 0.482034,0.6142595 0.876505,1.7574281 0.876505,2.5392937 0,0.781422 -0.640352,1.421774 -1.421334,1.421774 m 8.785816,10.612671 c -0.08402,0.03317 -0.171586,0.04774 -0.257378,0.04774 -0.285242,0 -0.553234,-0.172025 -0.661579,-0.452402 L 31.409721,8.5738496 C 30.042785,5.1584954 28.353016,3.8251673 25.384317,3.8251673 c -1.969257,0 -3.621875,1.2214435 -3.63691,1.2347104 -0.877389,0.6575983 -2.250077,0.6545027 -3.127905,0 -0.01459,-0.013268 -1.683135,-1.2347104 -3.637799,-1.2347104 -2.967815,0 -4.657583,1.3333281 -6.0267311,4.7544315 L 3.7879381,21.851851 C 3.6459817,22.217578 3.232053,22.398892 2.8676541,22.256492 2.5028131,22.114978 2.3210558,21.702818 2.4638968,21.335767 L 7.6326999,8.0586499 c 1.5854011,-3.965048 3.7828481,-5.654815 7.3490031,-5.654815 2.438908,0 4.408165,1.4567109 4.490419,1.5172965 0.37236,0.2803749 1.050301,0.2803749 1.421775,0 0.0827,-0.060585 2.05284,-1.5172965 4.489978,-1.5172965 3.566598,0 5.763605,1.689767 7.347678,5.649066 L 37.90345,21.335767 c 0.141515,0.367051 -0.03891,0.779211 -0.405526,0.920725"
     id="path3"
     inkscape:connector-curvature="0" /></svg>