<?xml version="1.0" encoding="UTF-8" standalone="no"?>
<svg
   xmlns:dc="http://purl.org/dc/elements/1.1/"
   xmlns:cc="http://creativecommons.org/ns#"
   xmlns:rdf="http://www.w3.org/1999/02/22-rdf-syntax-ns#"
   xmlns:svg="http://www.w3.org/2000/svg"
   xmlns="http://www.w3.org/2000/svg"
   xmlns:sodipodi="http://sodipodi.sourceforge.net/DTD/sodipodi-0.dtd"
   xmlns:inkscape="http://www.inkscape.org/namespaces/inkscape"
   version="1.1"
   id="Layer_1"
   x="0px"
   y="0px"
   width="30"
   height="30"
   viewBox="4.965 -9.8517 30 40.499999"
   enable-background="new -0.035 0.148 100 99.997"
   xml:space="preserve"
   inkscape:version="0.91 r13725"
   sodipodi:docname="I.svg"><metadata
     id="metadata15"><rdf:RDF><cc:Work
         rdf:about=""><dc:format>image/svg+xml</dc:format><dc:type
           rdf:resource="http://purl.org/dc/dcmitype/StillImage" /><dc:title></dc:title></cc:Work></rdf:RDF></metadata><defs
     id="defs13" /><sodipodi:namedview
     pagecolor="#ffffff"
     bordercolor="#666666"
     borderopacity="1"
     objecttolerance="10"
     gridtolerance="10"
     guidetolerance="10"
     inkscape:pageopacity="0"
     inkscape:pageshadow="2"
     inkscape:window-width="1600"
     inkscape:window-height="876"
     id="namedview11"
     showgrid="false"
     inkscape:zoom="13.350576"
     inkscape:cx="10.827923"
     inkscape:cy="11.905685"
     inkscape:window-x="1600"
     inkscape:window-y="24"
     inkscape:window-maximized="1"
     inkscape:current-layer="Layer_1" /><g
     id="Calque_1"
     display="none"
     style="display:none"
     transform="translate(0,-94.495963)" /><g
     id="Calque_2"
     transform="matrix(1.2762816,0,0,1.2762815,-6.1853054,-123.16158)" /><g
     id="g3343"
     transform="matrix(0.38288447,0,0,0.38288447,0.92145733,-9.0065649)"><path
       id="path5"
       d="m 50.859,0.191 0,0 0,0 C 50.755,0.19 50.652,0.181 50.549,0.173 50.356,0.159 50.162,0.147 49.964,0.147 c -27.57,0 -50,22.429 -50,49.998 0,27.571 22.43,49.999 50,49.999 0.194,0 0.386,-0.012 0.576,-0.026 0.104,-0.006 0.207,-0.016 0.312,-0.017 0.002,0 0.005,0 0.009,0 C 77.936,99.618 99.965,77.207 99.965,50.145 99.965,23.08 77.937,0.67 50.859,0.191 Z m 7.331,94.793 c 0.422,-0.465 0.832,-0.939 1.242,-1.414 l 0.271,-0.312 c 0.215,-0.246 0.429,-0.492 0.636,-0.743 0.476,-0.574 0.931,-1.164 1.385,-1.755 l 0.266,-0.339 c 0.157,-0.198 0.314,-0.397 0.465,-0.601 0.604,-0.811 1.208,-1.668 1.799,-2.547 l 0.168,-0.24 c 0.604,-0.906 1.215,-1.874 1.812,-2.877 0.118,-0.199 0.23,-0.401 0.342,-0.603 l 0.22,-0.39 c 0.4,-0.699 0.762,-1.333 1.103,-1.978 0.142,-0.27 0.275,-0.539 0.41,-0.812 l 0.199,-0.4 c 0.307,-0.609 0.611,-1.219 0.898,-1.836 0.164,-0.354 0.319,-0.71 0.475,-1.066 l 0.11,-0.251 c 0.263,-0.599 0.523,-1.199 0.77,-1.806 0.175,-0.435 0.341,-0.872 0.507,-1.311 0.252,-0.668 0.476,-1.271 0.685,-1.881 0.163,-0.47 0.318,-0.944 0.472,-1.42 0.194,-0.608 0.381,-1.22 0.559,-1.836 0.141,-0.479 0.275,-0.959 0.402,-1.443 0.165,-0.622 0.319,-1.25 0.465,-1.877 l 0.032,-0.135 c 0.103,-0.437 0.203,-0.873 0.296,-1.312 0.136,-0.646 0.255,-1.294 0.371,-1.944 l 0.062,-0.347 c 0.064,-0.358 0.131,-0.715 0.188,-1.074 0.103,-0.654 0.186,-1.312 0.27,-1.971 l 0.061,-0.482 c 0.04,-0.315 0.082,-0.63 0.114,-0.947 0.079,-0.759 0.135,-1.525 0.188,-2.29 l 0.031,-0.413 c 0.021,-0.241 0.041,-0.485 0.054,-0.729 0.063,-1.218 0.094,-2.349 0.094,-3.458 0,-1.827 -0.086,-3.741 -0.256,-5.699 0.682,-0.131 1.354,-0.32 2.036,-0.569 5.472,-2.003 8.332,-7.428 7.117,-13.5 -0.942,-4.706 -4.197,-8.993 -8.712,-11.466 -2.431,-1.333 -5.034,-2.037 -7.529,-2.037 -0.505,0 -1.018,0.032 -1.551,0.098 -0.227,-0.393 -0.455,-0.783 -0.689,-1.17 L 65.582,15.079 C 65.25,14.542 64.91,14.01 64.562,13.484 64.389,13.224 64.216,12.964 64.04,12.707 63.681,12.178 63.311,11.654 62.936,11.135 L 62.464,10.484 C 61.93,9.762 61.384,9.049 60.818,8.35 L 60.729,8.244 C 60.157,7.54 59.624,6.911 59.081,6.292 c 0,0 -0.781,-0.871 -0.887,-0.987 21.513,3.94 37.396,22.727 37.396,44.841 0,22.112 -15.884,40.898 -37.4,44.838 z M 70.787,23.499 c -0.062,0.092 -0.113,0.19 -0.171,0.285 -0.22,0.356 -0.419,0.721 -0.604,1.097 -0.06,0.121 -0.121,0.241 -0.177,0.364 -0.212,0.466 -0.403,0.94 -0.562,1.431 -0.002,0.006 -0.006,0.012 -0.008,0.019 -0.094,-0.018 -0.189,-0.021 -0.282,-0.034 -0.187,-0.031 -0.371,-0.049 -0.553,-0.053 -0.014,0 -0.024,-0.003 -0.037,-0.003 -0.009,0 -0.013,0.002 -0.021,0.002 -0.826,-0.009 -1.581,0.242 -2.189,0.701 -0.028,0.021 -0.056,0.044 -0.082,0.066 -0.188,0.15 -0.365,0.313 -0.52,0.501 -0.68,0.826 -0.938,1.957 -0.712,3.107 0.055,0.272 0.136,0.535 0.236,0.791 0.033,0.085 0.082,0.164 0.119,0.246 0.078,0.166 0.152,0.331 0.247,0.487 0.058,0.094 0.126,0.177 0.188,0.267 0.096,0.134 0.187,0.271 0.292,0.396 0.075,0.088 0.161,0.167 0.241,0.25 0.108,0.112 0.218,0.226 0.337,0.327 0.091,0.079 0.188,0.146 0.284,0.217 0.123,0.092 0.244,0.182 0.374,0.263 0.103,0.064 0.21,0.117 0.317,0.173 0.133,0.069 0.267,0.138 0.403,0.195 0.113,0.047 0.229,0.083 0.346,0.121 0.142,0.046 0.282,0.088 0.426,0.122 0.121,0.026 0.24,0.045 0.363,0.062 0.085,0.012 0.169,0.037 0.256,0.043 0.042,0.126 0.094,0.247 0.138,0.371 0.044,0.121 0.087,0.241 0.135,0.36 0.153,0.391 0.318,0.776 0.507,1.148 0.007,0.014 0.013,0.028 0.019,0.041 0.197,0.385 0.417,0.757 0.649,1.121 0.064,0.102 0.133,0.201 0.198,0.3 0.192,0.287 0.399,0.566 0.614,0.837 0.061,0.075 0.115,0.153 0.178,0.227 0.273,0.33 0.562,0.645 0.865,0.947 0.069,0.07 0.145,0.134 0.217,0.203 0.247,0.237 0.506,0.465 0.772,0.683 0.097,0.079 0.19,0.155 0.288,0.232 0.066,0.051 0.129,0.107 0.195,0.158 -0.094,0.011 -0.189,0.009 -0.283,0.017 -0.008,10e-4 -0.016,10e-4 -0.021,10e-4 -0.252,0.021 -0.506,0.046 -0.758,0.046 -0.604,0 -1.203,-0.062 -1.799,-0.156 -5.415,-0.851 -10.348,-5.407 -11.446,-10.897 -0.583,-2.91 0.004,-5.619 1.652,-7.629 0.733,-0.894 1.647,-1.593 2.688,-2.1 0.756,-0.369 1.583,-0.628 2.463,-0.774 0.003,0 0.006,0 0.009,-10e-4 0.543,-0.089 1.104,-0.146 1.685,-0.146 1.527,0 3.121,0.341 4.681,0.994 -0.062,0.057 -0.113,0.125 -0.174,0.183 -0.301,0.288 -0.585,0.588 -0.855,0.901 -0.076,0.089 -0.157,0.173 -0.232,0.264 -0.322,0.389 -0.621,0.799 -0.896,1.226 z m 0.444,7.855 c 0.001,0.078 -0.007,0.151 -0.017,0.225 -0.002,0.036 -0.004,0.071 -0.011,0.106 -0.037,0.21 -0.115,0.402 -0.234,0.568 -0.23,0.321 -0.605,0.533 -1.061,0.595 -0.002,0 -0.004,10e-4 -0.006,10e-4 -0.002,0 -0.004,0 -0.006,0 -0.105,0.016 -0.203,0.042 -0.238,0.071 -1.26,0 -2.539,-1.072 -2.793,-2.338 -0.11,-0.554 -0.009,-1.058 0.287,-1.418 0.28,-0.34 0.72,-0.528 1.24,-0.528 0.077,0 0.154,0.016 0.232,0.023 0.266,0.042 0.558,0.129 0.881,0.286 0,0 0.001,0 0.001,0.001 0.642,0.313 1.158,0.82 1.454,1.393 0.008,0.02 0.021,0.037 0.028,0.056 0.091,0.186 0.158,0.377 0.199,0.573 0,0.002 0.001,0.005 0.002,0.008 0.028,0.131 0.04,0.257 0.042,0.378 z"
       inkscape:connector-curvature="0" /></g></svg>