<?xml version="1.0" encoding="UTF-8" standalone="no"?>
<svg
   xmlns:dc="http://purl.org/dc/elements/1.1/"
   xmlns:cc="http://creativecommons.org/ns#"
   xmlns:rdf="http://www.w3.org/1999/02/22-rdf-syntax-ns#"
   xmlns:svg="http://www.w3.org/2000/svg"
   xmlns="http://www.w3.org/2000/svg"
   xmlns:sodipodi="http://sodipodi.sourceforge.net/DTD/sodipodi-0.dtd"
   xmlns:inkscape="http://www.inkscape.org/namespaces/inkscape"
   version="1.1"
   x="0px"
   y="0px"
   width="30"
   height="30"
   viewBox="5 -10 30 40.5"
   enable-background="new 0 0 100 100"
   xml:space="preserve"
   id="svg2"
   inkscape:version="0.91 r13725"
   sodipodi:docname="SR.svg"><metadata
     id="metadata134"><rdf:RDF><cc:Work
         rdf:about=""><dc:format>image/svg+xml</dc:format><dc:type
           rdf:resource="http://purl.org/dc/dcmitype/StillImage" /><dc:title></dc:title></cc:Work></rdf:RDF></metadata><defs
     id="defs132" /><sodipodi:namedview
     pagecolor="#ffffff"
     bordercolor="#666666"
     borderopacity="1"
     objecttolerance="10"
     gridtolerance="10"
     guidetolerance="10"
     inkscape:pageopacity="0"
     inkscape:pageshadow="2"
     inkscape:window-width="1600"
     inkscape:window-height="876"
     id="namedview130"
     showgrid="false"
     inkscape:zoom="16"
     inkscape:cx="9.0837123"
     inkscape:cy="13.287795"
     inkscape:window-x="0"
     inkscape:window-y="24"
     inkscape:window-maximized="1"
     inkscape:current-layer="svg2" /><g
     id="g3462"
     transform="matrix(0.40111706,0,0,0.40111706,0.45262021,25.110471)"><g
       transform="translate(-1.4300848,-85.633477)"
       id="Your_Icon"><circle
         style="fill:#000000"
         id="circle114"
         r="6.6240001"
         cy="13.438"
         cx="80.501999" /><path
         style="fill:#000000"
         inkscape:connector-curvature="0"
         id="path116"
         d="m 72.671,84.286 c 0,2.05 1.665,3.714 3.714,3.714 2.053,0 3.715,-1.664 3.715,-3.714 l 0.004,-31.154 1.653,0 -0.011,31.154 c 0,2.05 1.663,3.714 3.714,3.714 2.05,0 3.712,-1.664 3.712,-3.714 l 0.016,-53.711 1.63,0 0,19.794 c 0,3.981 5.194,3.981 5.183,0 l 0,-20.216 c 0,-4.399 -2.584,-8.71 -7.732,-8.71 L 73.423,21.437 c -4.69,0 -7.629,3.824 -7.629,8.595 l 0,20.337 c 0,3.953 5.223,3.953 5.223,0 l 0,-19.793 1.662,0 -0.008,53.71 z" /><circle
         style="fill:#000000"
         id="circle118"
         r="6.6240001"
         cy="13.438"
         cx="49.501999" /><path
         style="fill:#000000"
         inkscape:connector-curvature="0"
         id="path120"
         d="m 41.671,84.286 c 0,2.05 1.665,3.714 3.714,3.714 2.053,0 3.715,-1.664 3.715,-3.714 l 0.004,-31.154 1.653,0 -0.011,31.154 c 0,2.05 1.663,3.714 3.714,3.714 2.05,0 3.712,-1.664 3.712,-3.714 l 0.016,-53.711 1.63,0 0,19.794 c 0,3.981 5.194,3.981 5.183,0 l 0,-20.216 c 0,-4.399 -2.584,-8.71 -7.732,-8.71 L 42.423,21.437 c -4.69,0 -7.629,3.824 -7.629,8.595 l 0,20.337 c 0,3.953 5.223,3.953 5.223,0 l 0,-19.793 1.662,0 -0.008,53.71 z" /><circle
         style="fill:#000000"
         id="circle122"
         r="6.6240001"
         cy="13.438"
         cx="18.502001" /><path
         style="fill:#000000"
         inkscape:connector-curvature="0"
         id="path124"
         d="m 10.671,84.286 c 0,2.05 1.665,3.714 3.713,3.714 2.054,0 3.715,-1.664 3.715,-3.714 l 0.003,-31.154 1.654,0 -0.01,31.154 c 0,2.05 1.663,3.714 3.713,3.714 2.05,0 3.712,-1.664 3.712,-3.714 l 0.016,-53.711 1.629,0 0,19.794 c 0,3.981 5.194,3.981 5.183,0 l 0,-20.216 c 0,-4.399 -2.584,-8.71 -7.732,-8.71 L 11.42,21.437 c -4.69,0 -7.628,3.824 -7.628,8.595 l 0,20.337 c 0,3.953 5.223,3.953 5.223,0 l 0,-19.793 1.663,0 -0.007,53.71 z" /></g></g></svg>