<?xml version="1.0" encoding="UTF-8" standalone="no"?>
<svg
   xmlns:dc="http://purl.org/dc/elements/1.1/"
   xmlns:cc="http://creativecommons.org/ns#"
   xmlns:rdf="http://www.w3.org/1999/02/22-rdf-syntax-ns#"
   xmlns:svg="http://www.w3.org/2000/svg"
   xmlns="http://www.w3.org/2000/svg"
   xmlns:sodipodi="http://sodipodi.sourceforge.net/DTD/sodipodi-0.dtd"
   xmlns:inkscape="http://www.inkscape.org/namespaces/inkscape"
   version="1.1"
   id="Your_Icon"
   x="0px"
   y="0px"
   width="30"
   height="30"
   viewBox="5 -10 30 40.5"
   enable-background="new 0 0 100 100"
   xml:space="preserve"
   inkscape:version="0.91 r13725"
   sodipodi:docname="TC2.svg"><metadata
     id="metadata33"><rdf:RDF><cc:Work
         rdf:about=""><dc:format>image/svg+xml</dc:format><dc:type
           rdf:resource="http://purl.org/dc/dcmitype/StillImage" /><dc:title /></cc:Work></rdf:RDF></metadata><defs
     id="defs31" /><sodipodi:namedview
     pagecolor="#ffffff"
     bordercolor="#666666"
     borderopacity="1"
     objecttolerance="10"
     gridtolerance="10"
     guidetolerance="10"
     inkscape:pageopacity="0"
     inkscape:pageshadow="2"
     inkscape:window-width="1600"
     inkscape:window-height="876"
     id="namedview29"
     showgrid="false"
     inkscape:zoom="26.700352"
     inkscape:cx="11.653046"
     inkscape:cy="15.510362"
     inkscape:window-x="1600"
     inkscape:window-y="24"
     inkscape:window-maximized="1"
     inkscape:current-layer="Your_Icon" /><g
     id="g3354"
     transform="matrix(1.4352424,0,0,1.4352424,-12.457647,3.9632368)"><g
       transform="translate(0,-94.500003)"
       id="g3"><g
         id="g5"><g
           id="g7" /></g><g
         id="g9" /></g><path
       style="fill:#000000;stroke:#010101;stroke-width:0.34728751;stroke-miterlimit:10"
       inkscape:connector-curvature="0"
       id="path13"
       d="M 29.58692,5.3948227"
       stroke-miterlimit="10" /><path
       style="fill:#000000"
       inkscape:connector-curvature="0"
       id="path15"
       d="M 33.377216,6.4401581 32.23082,-5.0255387 c 0,0 -0.394519,-0.4049373 -1.164455,-0.4049373 -0.770631,0 -1.129032,0.4049373 -1.129032,0.4049373 l -1.146049,11.4656968 4.585932,0 z" /><path
       style="fill:#000000"
       inkscape:connector-curvature="0"
       id="path17"
       d="m 31.370588,-6.0861548 -0.573024,0 c 0,-0.3834054 -0.148986,-0.7431952 -0.419523,-1.0137322 -0.269843,-0.2701896 -0.629285,-0.4195233 -1.012343,-0.4195233 l -10e-4,0 c -1.106805,0 -2.006627,-0.8998219 -2.006627,-2.0062799 l 0.573371,0 c 0,0.7904264 0.642829,1.4329083 1.433256,1.4329083 l 10e-4,0 c 0.536559,0 1.039084,0.2083725 1.41728,0.5872631 0.379585,0.3795853 0.58761,0.8831521 0.58761,1.419364 z" /><path
       style="fill:#000000"
       inkscape:connector-curvature="0"
       id="path19"
       d="m 27.516392,6.4401581 -0.801887,-8.0261614 c 0,0 -0.275399,-0.2833866 -0.815431,-0.2833866 -0.539685,0 -0.790774,0.2833866 -0.790774,0.2833866 l -0.801192,8.0261614 3.209284,0 z" /><path
       style="fill:#000000"
       inkscape:connector-curvature="0"
       id="path21"
       d="m 26.198088,-2.328504 -0.572677,0 c 0,-0.245185 -0.09585,-0.4761312 -0.269148,-0.6487331 -0.172254,-0.1729491 -0.402506,-0.2681059 -0.646996,-0.2681059 l -0.001,0 c -0.82203,0 -1.491253,-0.6688757 -1.491253,-1.490558 l 0.573025,0 c 0,0.5059979 0.411883,0.9175336 0.918228,0.9175336 l 0.001,0 c 0.397644,0 0.77202,0.1552375 1.052628,0.4361931 0.28165,0.2809556 0.436193,0.6556788 0.436193,1.0536703 z" /><path
       style="fill:#000000"
       inkscape:connector-curvature="0"
       id="path23"
       d="m 34.173199,7.1222307 -10.891978,-0.00729 0,-1.720115 c 0,-0.1906608 -0.09411,-0.3681247 -0.252131,-0.474742 -0.157669,-0.1073118 -0.358053,-0.129191 -0.533781,-0.056955 l -4.946763,1.9784969 0,-1.4467997 c 0,-0.1906608 -0.09412,-0.3681247 -0.251784,-0.474742 -0.158015,-0.1073118 -0.3584,-0.129191 -0.534128,-0.056955 l -5.732327,2.2924448 c -0.218097,0.087517 -0.360485,0.2976254 -0.360485,0.5323918 l 0,9.9959755 c 0,0.316726 0.256646,0.573025 0.573025,0.573025 l 22.930004,0 c 0.317074,0 0.573372,-0.256299 0.573372,-0.573025 l 0,-9.9883352 C 34.74657,7.3788762 34.490272,7.1222307 34.173199,7.1222307 Z M 18.121918,12.19749 c 0,0.317421 -0.25734,0.573719 -0.573025,0.573719 l -3.439535,0 c -0.316379,0 -0.573025,-0.256298 -0.573025,-0.573719 l 0,-1.71942 c 0,-0.317421 0.256646,-0.57233 0.573025,-0.57233 l 3.439535,0 c 0.315685,0 0.573025,0.254909 0.573025,0.57233 l 0,1.71942 z m 6.879418,0 c 0,0.317421 -0.25734,0.573719 -0.573025,0.573719 l -3.439535,0 c -0.316726,0 -0.573372,-0.256298 -0.573372,-0.573719 l 0,-1.71942 c 0,-0.317421 0.256646,-0.57233 0.573372,-0.57233 l 3.439535,0 c 0.315685,0 0.573025,0.254909 0.573025,0.57233 l 0,1.71942 z m 6.878723,0 c 0,0.317421 -0.25734,0.573719 -0.573024,0.573719 l -3.439188,0 c -0.316727,0 -0.573025,-0.256298 -0.573025,-0.573719 l 0,-1.71942 c 0,-0.317421 0.256298,-0.57233 0.573025,-0.57233 l 3.439188,0 c 0.315684,0 0.573024,0.254909 0.573024,0.57233 l 0,1.71942 z" /></g></svg>